<mxfile host="app.diagrams.net" agent="Mozilla/5.0 (Windows NT 10.0; Win64; x64) AppleWebKit/537.36 (KHTML, like Gecko) Chrome/131.0.0.0 Safari/537.36" version="26.0.10">
  <diagram name="Strona-1" id="VsbbsMlBK54vpEXxDSbs">
    <mxGraphModel dx="1138" dy="614" grid="1" gridSize="10" guides="1" tooltips="1" connect="1" arrows="1" fold="1" page="1" pageScale="1" pageWidth="827" pageHeight="1169" math="0" shadow="0">
      <root>
        <mxCell id="0" />
        <mxCell id="1" parent="0" />
        <mxCell id="HP8dVkSu3fgKSZ6RZ54P-28" style="edgeStyle=orthogonalEdgeStyle;rounded=0;orthogonalLoop=1;jettySize=auto;html=1;exitX=0;exitY=0.3333333333333333;exitDx=0;exitDy=0;exitPerimeter=0;" edge="1" parent="1" source="HP8dVkSu3fgKSZ6RZ54P-1">
          <mxGeometry relative="1" as="geometry">
            <mxPoint x="70" y="159.91304347826087" as="targetPoint" />
          </mxGeometry>
        </mxCell>
        <mxCell id="HP8dVkSu3fgKSZ6RZ54P-1" value="Actor" style="shape=umlActor;verticalLabelPosition=bottom;verticalAlign=top;html=1;outlineConnect=0;" vertex="1" parent="1">
          <mxGeometry x="40" y="140" width="30" height="60" as="geometry" />
        </mxCell>
        <mxCell id="HP8dVkSu3fgKSZ6RZ54P-4" style="edgeStyle=orthogonalEdgeStyle;rounded=0;orthogonalLoop=1;jettySize=auto;html=1;" edge="1" parent="1" source="HP8dVkSu3fgKSZ6RZ54P-2">
          <mxGeometry relative="1" as="geometry">
            <mxPoint x="320" y="460" as="targetPoint" />
          </mxGeometry>
        </mxCell>
        <mxCell id="HP8dVkSu3fgKSZ6RZ54P-2" value="Auth Server" style="whiteSpace=wrap;html=1;aspect=fixed;" vertex="1" parent="1">
          <mxGeometry x="280" y="40" width="80" height="80" as="geometry" />
        </mxCell>
        <mxCell id="HP8dVkSu3fgKSZ6RZ54P-5" style="edgeStyle=orthogonalEdgeStyle;rounded=0;orthogonalLoop=1;jettySize=auto;html=1;" edge="1" parent="1" source="HP8dVkSu3fgKSZ6RZ54P-3">
          <mxGeometry relative="1" as="geometry">
            <mxPoint x="540" y="470" as="targetPoint" />
          </mxGeometry>
        </mxCell>
        <mxCell id="HP8dVkSu3fgKSZ6RZ54P-3" value="db" style="shape=cylinder3;whiteSpace=wrap;html=1;boundedLbl=1;backgroundOutline=1;size=15;" vertex="1" parent="1">
          <mxGeometry x="510" y="40" width="60" height="80" as="geometry" />
        </mxCell>
        <mxCell id="HP8dVkSu3fgKSZ6RZ54P-7" value="1. Auth Server is sending an&amp;nbsp;&lt;span style=&quot;background-color: transparent; color: light-dark(rgb(0, 0, 0), rgb(255, 255, 255));&quot;&gt;email&lt;/span&gt;&lt;div&gt;&lt;span style=&quot;background-color: transparent; color: light-dark(rgb(0, 0, 0), rgb(255, 255, 255));&quot;&gt;&amp;nbsp;with a link to reset a password&lt;/span&gt;&lt;/div&gt;" style="text;html=1;align=left;verticalAlign=middle;resizable=0;points=[];autosize=1;strokeColor=none;fillColor=none;" vertex="1" parent="1">
          <mxGeometry x="80" y="100" width="210" height="40" as="geometry" />
        </mxCell>
        <mxCell id="HP8dVkSu3fgKSZ6RZ54P-8" value="" style="endArrow=classic;html=1;rounded=0;" edge="1" parent="1">
          <mxGeometry width="50" height="50" relative="1" as="geometry">
            <mxPoint x="90" y="310" as="sourcePoint" />
            <mxPoint x="320" y="310" as="targetPoint" />
          </mxGeometry>
        </mxCell>
        <mxCell id="HP8dVkSu3fgKSZ6RZ54P-9" value="3. User puts the OPT in the form and then is&lt;div&gt;&amp;nbsp;prompted to&amp;nbsp;&lt;span style=&quot;background-color: transparent; color: light-dark(rgb(0, 0, 0), rgb(255, 255, 255));&quot;&gt;provide new password&amp;nbsp;&lt;/span&gt;&lt;/div&gt;&lt;div&gt;&lt;span style=&quot;background-color: transparent; color: light-dark(rgb(0, 0, 0), rgb(255, 255, 255));&quot;&gt;and cofirm it 2nd time&lt;/span&gt;&lt;div&gt;&lt;br&gt;&lt;/div&gt;&lt;/div&gt;" style="text;html=1;align=left;verticalAlign=middle;resizable=0;points=[];autosize=1;strokeColor=none;fillColor=none;" vertex="1" parent="1">
          <mxGeometry x="80" y="250" width="260" height="70" as="geometry" />
        </mxCell>
        <mxCell id="HP8dVkSu3fgKSZ6RZ54P-10" value="PATCH /users/password/reset&lt;div&gt;&lt;br&gt;&lt;/div&gt;" style="text;html=1;align=center;verticalAlign=middle;resizable=0;points=[];autosize=1;strokeColor=none;fillColor=none;" vertex="1" parent="1">
          <mxGeometry x="70" y="310" width="180" height="40" as="geometry" />
        </mxCell>
        <mxCell id="HP8dVkSu3fgKSZ6RZ54P-13" value="" style="endArrow=none;html=1;rounded=0;startArrow=classic;startFill=0;exitX=1;exitY=0.3333333333333333;exitDx=0;exitDy=0;exitPerimeter=0;" edge="1" parent="1" source="HP8dVkSu3fgKSZ6RZ54P-1">
          <mxGeometry relative="1" as="geometry">
            <mxPoint x="190" y="180" as="sourcePoint" />
            <mxPoint x="320" y="160" as="targetPoint" />
          </mxGeometry>
        </mxCell>
        <mxCell id="HP8dVkSu3fgKSZ6RZ54P-14" value="" style="shape=message;html=1;outlineConnect=0;" vertex="1" parent="HP8dVkSu3fgKSZ6RZ54P-13">
          <mxGeometry width="20" height="14" relative="1" as="geometry">
            <mxPoint x="-10" y="-7" as="offset" />
          </mxGeometry>
        </mxCell>
        <mxCell id="HP8dVkSu3fgKSZ6RZ54P-16" value="" style="endArrow=classic;html=1;rounded=0;" edge="1" parent="1">
          <mxGeometry width="50" height="50" relative="1" as="geometry">
            <mxPoint x="320" y="320" as="sourcePoint" />
            <mxPoint x="320" y="370" as="targetPoint" />
            <Array as="points">
              <mxPoint x="350" y="320" />
              <mxPoint x="350" y="370" />
            </Array>
          </mxGeometry>
        </mxCell>
        <mxCell id="HP8dVkSu3fgKSZ6RZ54P-17" value="3. Validate if both passwords match" style="text;html=1;align=center;verticalAlign=middle;resizable=0;points=[];autosize=1;strokeColor=none;fillColor=none;" vertex="1" parent="1">
          <mxGeometry x="320" y="290" width="210" height="30" as="geometry" />
        </mxCell>
        <mxCell id="HP8dVkSu3fgKSZ6RZ54P-19" value="" style="endArrow=classic;html=1;rounded=0;" edge="1" parent="1">
          <mxGeometry width="50" height="50" relative="1" as="geometry">
            <mxPoint x="320" y="400" as="sourcePoint" />
            <mxPoint x="540" y="400" as="targetPoint" />
          </mxGeometry>
        </mxCell>
        <mxCell id="HP8dVkSu3fgKSZ6RZ54P-20" value="4. if yes - save in the db" style="text;html=1;align=center;verticalAlign=middle;resizable=0;points=[];autosize=1;strokeColor=none;fillColor=none;" vertex="1" parent="1">
          <mxGeometry x="310" y="370" width="150" height="30" as="geometry" />
        </mxCell>
        <mxCell id="HP8dVkSu3fgKSZ6RZ54P-21" value="" style="endArrow=none;html=1;rounded=0;startFill=1;startArrow=classic;" edge="1" parent="1">
          <mxGeometry width="50" height="50" relative="1" as="geometry">
            <mxPoint x="100" y="440" as="sourcePoint" />
            <mxPoint x="320" y="440" as="targetPoint" />
          </mxGeometry>
        </mxCell>
        <mxCell id="HP8dVkSu3fgKSZ6RZ54P-23" value="5. if no - 400 BAD REQUEST" style="text;html=1;align=center;verticalAlign=middle;resizable=0;points=[];autosize=1;strokeColor=none;fillColor=none;" vertex="1" parent="1">
          <mxGeometry x="95" y="408" width="180" height="30" as="geometry" />
        </mxCell>
        <mxCell id="HP8dVkSu3fgKSZ6RZ54P-24" value="" style="rounded=0;whiteSpace=wrap;html=1;align=left;" vertex="1" parent="1">
          <mxGeometry x="40" y="490" width="410" height="130" as="geometry" />
        </mxCell>
        <mxCell id="HP8dVkSu3fgKSZ6RZ54P-25" value="Security:&amp;nbsp;&lt;br&gt;&amp;nbsp;- POST /users/password/reset should be allowed basend on time use token send to email&lt;div&gt;&lt;br&gt;&lt;/div&gt;&lt;div&gt;Asumptions:&lt;br&gt;- service is going to send and email with link to reset password url after user is being created&lt;/div&gt;" style="text;html=1;align=left;verticalAlign=top;whiteSpace=wrap;rounded=0;" vertex="1" parent="1">
          <mxGeometry x="50" y="500" width="390" height="110" as="geometry" />
        </mxCell>
        <mxCell id="HP8dVkSu3fgKSZ6RZ54P-26" value="" style="endArrow=classic;html=1;rounded=0;" edge="1" parent="1">
          <mxGeometry width="50" height="50" relative="1" as="geometry">
            <mxPoint x="80" y="220" as="sourcePoint" />
            <mxPoint x="315" y="220" as="targetPoint" />
          </mxGeometry>
        </mxCell>
        <mxCell id="HP8dVkSu3fgKSZ6RZ54P-27" value="" style="endArrow=classic;html=1;rounded=0;" edge="1" parent="1">
          <mxGeometry width="50" height="50" relative="1" as="geometry">
            <mxPoint x="340" y="420" as="sourcePoint" />
            <mxPoint x="560" y="420" as="targetPoint" />
          </mxGeometry>
        </mxCell>
        <mxCell id="HP8dVkSu3fgKSZ6RZ54P-29" value="2. User will click the link which will generate&amp;nbsp;&lt;div&gt;OTP&amp;nbsp;&lt;span style=&quot;background-color: transparent; color: light-dark(rgb(0, 0, 0), rgb(255, 255, 255));&quot;&gt;and sends it to his email&lt;/span&gt;&lt;/div&gt;" style="text;html=1;align=left;verticalAlign=middle;resizable=0;points=[];autosize=1;strokeColor=none;fillColor=none;" vertex="1" parent="1">
          <mxGeometry x="80" y="180" width="260" height="40" as="geometry" />
        </mxCell>
      </root>
    </mxGraphModel>
  </diagram>
</mxfile>
